<svg width="934" height="557" viewBox="0 0 934 557" fill="none" xmlns="http://www.w3.org/2000/svg">
<path d="M121.61 406.395V299.928L175.887 234.487H328.43L382.707 299.928V398.64H572.683V357.589C633.514 349.822 614.802 296.589 648.489 296.589H708.381C712.746 296.569 717.024 298.039 720.703 300.823L805.258 238.891H892.283L1001.31 318.741H1001.07V419.28L1074.3 472.912V564.97H67.3326V471.811L121.61 406.395Z" fill="#E8FCF7"/>
<path d="M30.828 564.994H89.791C89.791 545.709 76.5917 526.182 60.3095 526.182C44.0273 526.182 30.828 545.709 30.828 564.994Z" fill="#3EB886"/>
<path d="M0.131817 564.994H43.9355C43.9355 550.669 34.1254 536.163 22.0389 536.163C9.95226 536.163 0.131817 550.669 0.131817 564.994Z" fill="#3EB886"/>
<path d="M860.617 99.2024C832.034 88.713 795.284 73.6384 683.453 182.029C571.621 290.419 529.308 219.534 540.751 203.153C549.939 189.965 601.245 225.547 563.056 273.517C526.766 319.129 420.406 275.502 391.241 247.578C349.734 207.847 290.312 176.596 237.933 174.346" stroke="#2BA269" stroke-width="4" stroke-linecap="round" stroke-linejoin="round" stroke-dasharray="12 12"/>
<path d="M783.249 318.766L892.283 238.917" stroke="#2BA269" stroke-width="4" stroke-linecap="round" stroke-linejoin="round"/>
<path d="M1000.05 318.766H783.013V563.785" stroke="#2BA269" stroke-width="4" stroke-linecap="round" stroke-linejoin="round"/>
<path d="M1002.71 455.744H784.656" stroke="#2BA269" stroke-width="4" stroke-linecap="round" stroke-linejoin="round"/>
<path d="M385.055 492.354H230.634" stroke="#2BA269" stroke-width="4" stroke-linecap="round" stroke-linejoin="round"/>
<path d="M783.25 318.766H732.372" stroke="#2BA269" stroke-width="4" stroke-linecap="round" stroke-linejoin="round"/>
<path d="M381.686 299.916H230.164V563.784" stroke="#2BA269" stroke-width="4" stroke-linecap="round" stroke-linejoin="round"/>
<path d="M230.164 562.574V299.916H123.651" stroke="#2BA269" stroke-width="4" stroke-linecap="round" stroke-linejoin="round"/>
<path d="M631.645 359.804H573.702" stroke="#2BA269" stroke-width="4" stroke-linecap="round" stroke-linejoin="round"/>
<path d="M175.887 563.784V471.835H68.9346" stroke="#2BA269" stroke-width="4" stroke-linecap="round" stroke-linejoin="round"/>
<path d="M176.479 235.189L230.164 299.916" stroke="#2BA269" stroke-width="4" stroke-linecap="round" stroke-linejoin="round"/>
<path d="M230.164 406.396L175.887 471.836" stroke="#2BA269" stroke-width="4" stroke-linecap="round" stroke-linejoin="round"/>
<path d="M123.182 403.624H229.695" stroke="#2BA269" stroke-width="4" stroke-linecap="round" stroke-linejoin="round"/>
<path d="M707.238 298.803C740.926 298.803 722.214 352.037 783.045 359.804H631.411C692.273 352.049 673.551 298.803 707.238 298.803Z" stroke="#2BA269" stroke-width="4" stroke-linecap="round" stroke-linejoin="round"/>
<path d="M783.045 562.574V359.815H631.442V563.784" stroke="#2BA269" stroke-width="4" stroke-linecap="round" stroke-linejoin="round"/>
<path d="M631.645 562.574V418.59H385.043V563.784" stroke="#2BA269" stroke-width="4" stroke-linecap="round" stroke-linejoin="round"/>
<path d="M631.207 415.88L574.245 396.402" stroke="#2BA269" stroke-width="4" stroke-linecap="round" stroke-linejoin="round"/>
<path d="M385.043 399.838V418.591H631.645" stroke="#2BA269" stroke-width="4" stroke-linecap="round" stroke-linejoin="round"/>
<path d="M582.657 451.874H582.412C577.983 451.874 573.735 453.959 570.603 457.671C567.471 461.383 565.711 466.417 565.711 471.667V565.007H599.398V471.667C599.398 469.063 598.965 466.486 598.123 464.081C597.281 461.676 596.048 459.492 594.492 457.654C592.937 455.815 591.091 454.358 589.061 453.366C587.03 452.375 584.853 451.867 582.657 451.874Z" fill="#3EB886"/>
<path d="M431.983 451.874H431.697C427.268 451.874 423.02 453.959 419.888 457.671C416.756 461.383 414.996 466.417 414.996 471.667V565.006H448.684V471.667C448.684 466.417 446.924 461.383 443.792 457.671C440.66 453.959 436.412 451.874 431.983 451.874Z" fill="#3EB886"/>
<path d="M507.319 451.874H507.033C502.604 451.874 498.356 453.959 495.224 457.671C492.092 461.383 490.332 466.417 490.332 471.667V565.006H524.02V471.667C524.02 466.417 522.26 461.383 519.128 457.671C515.996 453.959 511.748 451.874 507.319 451.874Z" fill="#3EB886"/>
<path d="M119.874 497.339H119.588C115.158 497.339 110.91 499.425 107.778 503.137C104.646 506.849 102.887 511.883 102.887 517.132V564.994H136.574V517.132C136.574 511.883 134.815 506.849 131.683 503.137C128.551 499.425 124.303 497.339 119.874 497.339Z" fill="#3EB886"/>
<path d="M828.083 497.339H827.798C825.603 497.336 823.429 497.846 821.4 498.839C819.372 499.832 817.528 501.29 815.975 503.128C814.422 504.966 813.19 507.149 812.35 509.552C811.509 511.955 811.076 514.531 811.076 517.132V564.994H844.764V517.132C844.764 511.887 843.007 506.856 839.879 503.145C836.752 499.434 832.509 497.346 828.083 497.339Z" fill="#3EB886"/>
<path d="M892.192 497.339H891.906C887.477 497.339 883.229 499.425 880.097 503.137C876.965 506.849 875.205 511.883 875.205 517.132V564.994H908.893V517.132C908.893 511.883 907.133 506.849 904.001 503.137C900.869 499.425 896.621 497.339 892.192 497.339Z" fill="#3EB886"/>
<path d="M811.098 354.263H844.785V421.917H811.098V354.263Z" fill="#3EB886"/>
<path d="M875.205 354.263H908.893V421.917H875.205V354.263Z" fill="#3EB886"/>
<path d="M719.886 394.188H747.877V444.094H719.886V394.188Z" fill="#3EB886"/>
<path d="M666.618 394.188H694.609V444.094H666.618V394.188Z" fill="#3EB886"/>
<path d="M719.886 481.817H747.877V531.724H719.886V481.817Z" fill="#3EB886"/>
<path d="M666.618 481.817H694.609V531.724H666.618V481.817Z" fill="#3EB886"/>
<path d="M320.273 327.646H348.264V377.552H320.273V327.646Z" fill="#3EB886"/>
<path d="M267.007 327.646H294.998V377.552H267.007V327.646Z" fill="#3EB886"/>
<path d="M159.38 327.646H187.371V377.552H159.38V327.646Z" fill="#3EB886"/>
<path d="M320.273 415.263H348.264V465.169H320.273V415.263Z" fill="#3EB886"/>
<path d="M267.007 415.263H294.998V465.169H267.007V415.263Z" fill="#3EB886"/>
<path d="M855.308 36.496C855.308 61.4552 877.766 90.2858 886.668 90.2858C895.57 90.2858 918.018 61.4552 918.018 36.496C917.869 26.7565 914.501 17.4754 908.637 10.6498C902.773 3.82428 894.882 0 886.663 0C878.444 0 870.553 3.82428 864.689 10.6498C858.825 17.4754 855.456 26.7565 855.308 36.496Z" fill="#3EB886"/>
<path d="M886.669 48.1469C881.24 48.1469 876.839 42.9306 876.839 36.4961C876.839 30.0615 881.24 24.8452 886.669 24.8452C892.099 24.8452 896.5 30.0615 896.5 36.4961C896.5 42.9306 892.099 48.1469 886.669 48.1469Z" fill="white"/>
<path d="M147.024 105.639C147.024 130.598 169.482 159.429 178.373 159.429C187.264 159.429 209.723 130.598 209.723 105.639C209.723 95.7854 206.42 86.335 200.541 79.3671C194.661 72.3993 186.688 68.4849 178.373 68.4849C170.059 68.4849 162.085 72.3993 156.206 79.3671C150.326 86.335 147.024 95.7854 147.024 105.639Z" fill="#3EB886"/>
<path d="M178.166 116.612C172.736 116.612 168.335 111.396 168.335 104.961C168.335 98.5268 172.736 93.3105 178.166 93.3105C183.595 93.3105 187.996 98.5268 187.996 104.961C187.996 111.396 183.595 116.612 178.166 116.612Z" fill="white"/>
</svg>
