<svg width="130" height="128" viewBox="0 0 130 128" fill="none" xmlns="http://www.w3.org/2000/svg">
<g id="Outline/Files/Image">
<g id="Icon">
<path d="M75.4394 48.0956C75.4394 43.6912 79.0557 40.1207 83.5165 40.1207C87.9773 40.1207 91.5935 43.6912 91.5935 48.0956C91.5935 52.5 87.9773 56.0705 83.5165 56.0705C79.0557 56.0705 75.4394 52.5 75.4394 48.0956Z" fill="black"/>
<path fill-rule="evenodd" clip-rule="evenodd" d="M39.1872 25.0139C56.1438 23.5585 73.1964 23.5585 90.153 25.0139L98.2852 25.7119C106.066 26.3797 112.37 32.2261 113.532 39.8522C115.974 55.8908 115.974 72.2 113.532 88.2386C112.37 95.8647 106.066 101.711 98.2852 102.379L90.1531 103.077C73.1964 104.532 56.1438 104.532 39.1872 103.077L31.055 102.379C23.2738 101.711 16.9701 95.8647 15.8086 88.2386C13.3659 72.2 13.3659 55.8908 15.8086 39.8522C16.9701 32.2261 23.2738 26.3797 31.055 25.7119L39.1872 25.0139ZM89.4535 32.9588C72.9623 31.5434 56.3778 31.5434 39.8866 32.9588L31.7545 33.6568C27.6927 34.0054 24.4021 37.0572 23.7958 41.0381C22.4091 50.1434 21.8502 59.3403 22.1191 68.5195L42.9679 47.9344C43.7544 47.1578 44.8305 46.7359 45.9422 46.7682C47.054 46.8005 48.1031 47.284 48.842 48.1048L68.6116 70.0643L82.2394 65.5792C83.7634 65.0776 85.4436 65.5156 86.5183 66.6945L105.468 87.4832C105.497 87.341 105.522 87.1975 105.544 87.0527C107.867 71.8002 107.867 56.2905 105.544 41.0381C104.938 37.0572 101.648 34.0054 97.5857 33.6568L89.4535 32.9588ZM100.318 93.7545L82.2841 73.9707L68.6395 78.4614C67.1068 78.9659 65.4172 78.5199 64.3439 77.3277L45.6507 56.5638L22.7997 79.1257C23.0624 81.774 23.3944 84.4172 23.7958 87.0527C24.4021 91.0335 27.6927 94.0854 31.7545 94.434L39.8866 95.132C56.3778 96.5474 72.9624 96.5474 89.4536 95.132L97.5857 94.434C98.5481 94.3514 99.4672 94.117 100.318 93.7545Z" fill="black"/>
</g>
</g>
</svg>
