<svg width="82" height="92" viewBox="0 0 82 92" fill="none" xmlns="http://www.w3.org/2000/svg">
<g id="Outline/Navigation/Map-location">
<g id="Icon">
<path fill-rule="evenodd" clip-rule="evenodd" d="M28.2026 34.5C28.2026 26.5609 33.8934 20.125 40.9133 20.125C47.9332 20.125 53.6239 26.5609 53.6239 34.5C53.6239 42.4391 47.9332 48.875 40.9133 48.875C33.8934 48.875 28.2026 42.4391 28.2026 34.5ZM40.9133 25.875C36.7013 25.875 33.2869 29.7365 33.2869 34.5C33.2869 39.2635 36.7013 43.125 40.9133 43.125C45.1252 43.125 48.5397 39.2635 48.5397 34.5C48.5397 29.7365 45.1252 25.875 40.9133 25.875Z" fill="black"/>
<path fill-rule="evenodd" clip-rule="evenodd" d="M18.7337 31.1544C19.6616 18.4231 29.0688 8.625 40.3643 8.625H41.4623C52.7578 8.625 62.165 18.4231 63.0929 31.1544C63.5903 37.9788 61.7263 44.7551 57.8937 50.0561L45.709 66.9088C43.2304 70.337 38.5962 70.337 36.1175 66.9088L23.9329 50.0561C20.1002 44.7551 18.2363 37.9788 18.7337 31.1544ZM40.3643 14.375C31.7148 14.375 24.5113 21.8778 23.8008 31.6268C23.4116 36.9665 24.87 42.2686 27.8689 46.4163L40.0535 63.269C40.4979 63.8836 41.3287 63.8836 41.7731 63.269L53.9577 46.4163C56.9565 42.2686 58.415 36.9665 58.0258 31.6268C57.3152 21.8778 50.1117 14.375 41.4623 14.375H40.3643Z" fill="black"/>
<path d="M26.2395 62.6191C26.8673 61.1989 26.3583 59.4719 25.1026 58.7618C23.8468 58.0517 22.3198 58.6274 21.6919 60.0476L14.9129 75.3809C14.5189 76.2721 14.561 77.3305 15.0242 78.1781C15.4874 79.0257 16.3056 79.5416 17.1867 79.5416H64.6399C65.5209 79.5416 66.3391 79.0257 66.8023 78.1781C67.2655 77.3305 67.3076 76.2721 66.9136 75.3809L60.1346 60.0476C59.5067 58.6274 57.9797 58.0517 56.724 58.7618C55.4682 59.4719 54.9592 61.1989 55.5871 62.6191L60.5266 73.7916H21.2999L26.2395 62.6191Z" fill="black"/>
</g>
</g>
</svg>
